<?xml version="1.0" encoding="utf-8"?>
<!-- Generator: Adobe Illustrator 22.1.0, SVG Export Plug-In . SVG Version: 6.00 Build 0)  -->
<svg version="1.1" id="Layer_1" xmlns="http://www.w3.org/2000/svg" xmlns:xlink="http://www.w3.org/1999/xlink" x="0px" y="0px"
	 viewBox="0 0 100 100" style="enable-background:new 0 0 100 100;" xml:space="preserve">
<style type="text/css">
	.st0{fill:#4955F2;}
</style>
<g>
	<path class="st0" d="M100,54.8l-6.9-43.2c-0.2-1.5-1.7-2.6-3.2-2.4L2.4,23.2c-1.5,0.2-2.6,1.7-2.4,3.2l6.9,43.2
		c0.2,1.5,1.7,2.6,3.2,2.4l10.4-1.7l5.7,7l10.8,13.4l6.2-16.1l3.2-8.4l51.2-8.1C99.2,57.8,100.2,56.4,100,54.8z M29,44.9
		c-4.5,0-8.2-3.7-8.2-8.2s3.7-8.2,8.2-8.2s8.2,3.7,8.2,8.2S33.6,44.9,29,44.9z M69.9,41.6c-2.7,0-4.9-2.2-4.9-4.9
		c0-2.7,2.2-4.9,4.9-4.9c2.7,0,4.9,2.2,4.9,4.9C74.8,39.4,72.6,41.6,69.9,41.6z"/>
</g>
</svg>
