<?xml version="1.0" encoding="utf-8"?>
<!-- Generator: Adobe Illustrator 22.1.0, SVG Export Plug-In . SVG Version: 6.00 Build 0)  -->
<svg version="1.1" id="Layer_1" xmlns="http://www.w3.org/2000/svg" xmlns:xlink="http://www.w3.org/1999/xlink" x="0px" y="0px"
	 viewBox="0 0 720 720" style="enable-background:new 0 0 720 720;" xml:space="preserve">
<style type="text/css">
	.st0{fill:#4955F2;}
</style>
<g>
	<path class="st0" d="M633.6,386.4L596,150.1c-1.3-8.4-9.3-14.2-17.8-12.9l-479,76.2c-8.4,1.3-14.2,9.3-12.9,17.8L124,467.5
		c1.3,8.4,9.3,14.2,17.8,12.9l56.9-9l31.2,38.4l59.4,73.2l33.7-88.1l17.7-46.2l280.2-44.6C629.2,402.8,635,394.8,633.6,386.4z
		 M245.2,332c-24.7,0-44.7-20-44.7-44.7s20-44.7,44.7-44.7s44.7,20,44.7,44.7S270,332,245.2,332z M469,314.1
		c-14.8,0-26.8-12-26.8-26.8c0-14.8,12-26.8,26.8-26.8c14.8,0,26.8,12,26.8,26.8C495.8,302.1,483.8,314.1,469,314.1z"/>
</g>
</svg>
